<svg width="212" height="110" viewBox="0 0 212 110" fill="none" xmlns="http://www.w3.org/2000/svg">
<path d="M0 108.832H3.79802V47.2065L0 49.2283V108.832Z" fill="#E6E6E6"/>
<path d="M0 42.8116L3.79802 40.7898V18.0242L0 20.0459V42.8116Z" fill="#E6E6E6"/>
<path d="M8.67761 27.9356L12.4756 25.9139V6.57239L8.67761 8.59415V27.9356Z" fill="#E6E6E6"/>
<path d="M17.355 15.879L21.153 17.9007V2.02188L17.355 0.00012207V15.879Z" fill="#E6E6E6"/>
<path d="M26.0325 34.8867L29.8305 36.9084V15.6832L26.0325 13.6598V34.8867Z" fill="#E6E6E6"/>
<path d="M8.67761 108.832H12.4756V32.3306L8.67761 34.3507V108.832Z" fill="#E6E6E6"/>
<path d="M17.355 108.832H21.153V24.3158L17.355 22.2941V108.832Z" fill="#E6E6E6"/>
<path d="M26.0325 108.832H29.8305V43.3251L26.0325 41.3033V108.832Z" fill="#E6E6E6"/>
<path d="M0 108.832H3.79802V47.207L0 49.2288V108.832Z" fill="#E6E6E6"/>
<path d="M0 42.8118L3.79802 40.7901V18.0244L0 20.0462V42.8118Z" fill="#E6E6E6"/>
<path d="M8.67773 27.9355L12.4758 25.9138V6.57227L8.67773 8.59403V27.9355Z" fill="#E6E6E6"/>
<path d="M17.3555 15.8788L21.1535 17.9006V2.02176L17.3555 0V15.8788Z" fill="#E6E6E6"/>
<path d="M26.0322 34.887L29.8302 36.9088V15.6835L26.0322 13.6602V34.887Z" fill="#E6E6E6"/>
<path d="M8.67773 108.831H12.4758V32.3301L8.67773 34.3502V108.831Z" fill="#E6E6E6"/>
<path d="M17.3555 108.832H21.1535V24.3157L17.3555 22.2939V108.832Z" fill="#E6E6E6"/>
<path d="M26.0322 108.832H29.8302V43.3255L26.0322 41.3037V108.832Z" fill="#E6E6E6"/>
<path d="M89.3488 87.7597L83.0958 71H78.749V92.8879H80.6264V76.0335L86.9115 92.8879H89.474L95.6339 76.0335V92.8879H99.6999V71H95.4783L89.3488 87.7597Z" fill="#E6E6E6"/>
<path d="M126.989 80.114C126.75 80.7494 126.414 81.2757 125.988 81.6929C125.559 82.11 125.054 82.4229 124.471 82.6315C123.887 82.8401 123.252 82.9444 122.564 82.9444H117.716V72.8757H122.564C123.252 72.8757 123.887 72.98 124.471 73.1886C125.054 73.3972 125.559 73.7101 125.988 74.1257C126.414 74.5445 126.748 75.0644 126.989 75.6902C127.228 76.3159 127.348 77.0557 127.348 77.9109C127.348 78.7453 127.228 79.4802 126.989 80.1156V80.114ZM128.99 72.7041C128.125 72.1312 127.135 71.7028 126.02 71.422C124.905 71.1412 123.752 71 122.565 71H113.653V92.8896H117.718V84.8218H122.565C123.752 84.8218 124.905 84.6806 126.02 84.3998C127.135 84.119 128.125 83.6922 128.99 83.1177C129.855 82.5433 130.548 81.826 131.069 80.9596C131.591 80.0947 131.851 79.079 131.851 77.9109C131.851 76.7444 131.591 75.7271 131.069 74.8622C130.548 73.9973 129.855 73.2785 128.99 72.7041Z" fill="#E6E6E6"/>
<path d="M145.806 92.8879H149.87V71H145.806V92.8879Z" fill="#E6E6E6"/>
<path d="M177.159 80.114C176.918 80.7494 176.585 81.2757 176.158 81.6929C175.731 82.11 175.226 82.4229 174.642 82.6315C174.057 82.8401 173.422 82.9444 172.734 82.9444H167.886V72.8757H172.734C173.422 72.8757 174.057 72.98 174.642 73.1886C175.226 73.3972 175.731 73.7101 176.158 74.1257C176.586 74.5445 176.918 75.0644 177.159 75.6902C177.398 76.3159 177.518 77.0557 177.518 77.9109C177.518 78.7453 177.398 79.4802 177.159 80.1156V80.114ZM179.16 72.7041C178.295 72.1312 177.303 71.7028 176.19 71.422C175.075 71.1412 173.923 71 172.735 71H163.823V92.8896H167.888V84.8218H172.015L176.705 92.92L181.395 92.8879L176.423 84.3516C177.215 84.1222 177.95 83.8189 178.627 83.4451C179.304 83.0696 179.893 82.6155 180.394 82.0844C180.895 81.5533 181.291 80.9387 181.583 80.2391C181.875 79.5411 182.021 78.7645 182.021 77.9093C182.021 76.7428 181.761 75.7255 181.24 74.8606C180.718 73.9957 180.025 73.2769 179.16 72.7025V72.7041Z" fill="#E6E6E6"/>
<path d="M211.139 72.8757V71H195.973V92.8879H211.139V91.0106H200.039V82.8818H209.512V81.0045H200.039V72.8757H211.139Z" fill="#E6E6E6"/>
<path d="M64.7974 72.8757V71H49.631V92.8879H64.7974V91.0106H53.6954V82.8818H63.1704V81.0045H53.6954V72.8757H64.7974Z" fill="#E6E6E6"/>
<path d="M68.8939 106.756L67.814 104.386L66.7406 106.756H68.8939ZM69.0046 107.008H66.6234L66.1004 108.165H65.7778L67.6664 104.057H67.9665L69.855 108.165H69.5325L69.0046 107.008Z" fill="#E6E6E6"/>
<path d="M75.0073 104.327H72.7673V108.165H72.4673V104.057H75.0073V104.327Z" fill="#E6E6E6"/>
<path d="M80.3937 107.895V108.165H77.5601V104.057H80.3055V104.327H77.8585V105.946H80.0471V106.211H77.8585V107.895H80.3937Z" fill="#E6E6E6"/>
<path d="M86.496 104.057V108.165H86.196V106.211H83.4506V108.165H83.1521V104.057H83.4506V105.947H86.196V104.057H86.496Z" fill="#E6E6E6"/>
<path d="M92.3094 104.327H90.8316V108.165H90.5315V104.327H89.0537V104.057H92.3094V104.327Z" fill="#E6E6E6"/>
<path d="M95.4816 107.924C95.159 107.745 94.9055 107.496 94.7194 107.18C94.5332 106.862 94.4402 106.507 94.4402 106.113C94.4402 105.718 94.5332 105.362 94.7194 105.044C94.9055 104.728 95.159 104.479 95.4816 104.3C95.8041 104.12 96.1667 104.03 96.5695 104.03C96.8663 104.03 97.1407 104.078 97.391 104.174C97.6413 104.271 97.8547 104.412 98.0312 104.6L97.8435 104.792C97.5145 104.468 97.0941 104.304 96.5823 104.304C96.2373 104.304 95.926 104.383 95.6436 104.54C95.3628 104.696 95.1414 104.913 94.9809 105.189C94.8205 105.465 94.7402 105.771 94.7402 106.113C94.7402 106.453 94.8205 106.761 94.9809 107.037C95.1414 107.313 95.3628 107.53 95.6436 107.685C95.926 107.841 96.2389 107.92 96.5823 107.92C97.0909 107.92 97.5113 107.756 97.8435 107.427L98.0312 107.619C97.8547 107.807 97.6413 107.95 97.3878 108.048C97.1359 108.146 96.8631 108.194 96.5695 108.194C96.1667 108.194 95.8041 108.104 95.4816 107.924Z" fill="#E6E6E6"/>
<path d="M103.281 104.327H101.804V108.165H101.504V104.327H100.026V104.057H103.281V104.327Z" fill="#E6E6E6"/>
<path d="M108.772 107.056C108.772 106.763 108.674 106.548 108.479 106.411C108.283 106.275 107.992 106.206 107.611 106.206H106.138V107.913H107.611C108.386 107.913 108.772 107.628 108.772 107.056ZM106.138 105.959H107.487C107.832 105.959 108.095 105.89 108.28 105.749C108.463 105.607 108.556 105.404 108.556 105.139C108.556 104.869 108.464 104.664 108.28 104.523C108.095 104.383 107.832 104.312 107.487 104.312H106.138V105.96V105.959ZM108.84 106.387C108.994 106.559 109.072 106.788 109.072 107.074C109.072 107.425 108.949 107.697 108.702 107.884C108.456 108.072 108.09 108.165 107.606 108.165H105.839V104.059H107.493C107.925 104.059 108.259 104.149 108.499 104.329C108.74 104.508 108.861 104.767 108.861 105.102C108.861 105.341 108.798 105.54 108.673 105.7C108.548 105.861 108.373 105.978 108.15 106.053C108.455 106.103 108.684 106.216 108.838 106.387H108.84Z" fill="#E6E6E6"/>
<path d="M114.693 107.684C114.971 107.528 115.191 107.311 115.349 107.035C115.51 106.759 115.59 106.451 115.59 106.111C115.59 105.771 115.51 105.463 115.349 105.187C115.189 104.911 114.971 104.694 114.693 104.539C114.416 104.383 114.104 104.304 113.761 104.304C113.416 104.304 113.105 104.383 112.825 104.539C112.546 104.694 112.325 104.911 112.166 105.187C112.006 105.463 111.925 105.771 111.925 106.111C111.925 106.451 112.006 106.759 112.166 107.035C112.326 107.311 112.546 107.528 112.825 107.684C113.105 107.839 113.418 107.918 113.761 107.918C114.104 107.918 114.416 107.839 114.693 107.684ZM112.67 107.921C112.344 107.74 112.091 107.489 111.904 107.173C111.718 106.856 111.625 106.503 111.625 106.111C111.625 105.72 111.718 105.367 111.904 105.049C112.091 104.731 112.346 104.483 112.67 104.301C112.994 104.12 113.358 104.028 113.761 104.028C114.164 104.028 114.528 104.118 114.852 104.298C115.176 104.478 115.433 104.726 115.617 105.044C115.804 105.36 115.897 105.716 115.897 106.111C115.897 106.506 115.804 106.862 115.617 107.18C115.433 107.498 115.176 107.745 114.852 107.924C114.528 108.104 114.164 108.194 113.761 108.194C113.358 108.194 112.994 108.104 112.67 107.921Z" fill="#E6E6E6"/>
<path d="M125.376 104.057V108.165H125.076V106.211H122.331V108.165H122.032V104.057H122.331V105.947H125.076V104.057H125.376Z" fill="#E6E6E6"/>
<path d="M131.448 107.895V108.165H128.614V104.057H131.36V104.327H128.914V105.946H131.103V106.211H128.914V107.895H131.448Z" fill="#E6E6E6"/>
<path d="M134.636 107.061C134.556 107.483 134.42 107.761 134.229 107.894H136.928V104.327H134.827L134.792 105.431C134.77 106.095 134.717 106.641 134.636 107.063V107.061ZM137.86 107.894V109.102H137.573V108.163H133.818L133.812 109.102H133.524L133.531 107.894H133.754C134.023 107.87 134.213 107.643 134.32 107.213C134.428 106.783 134.494 106.18 134.516 105.407L134.556 104.057H137.226V107.895H137.86V107.894Z" fill="#E6E6E6"/>
<path d="M143.511 107.056C143.511 106.763 143.413 106.548 143.218 106.411C143.022 106.275 142.731 106.206 142.35 106.206H140.877V107.913H142.35C143.125 107.913 143.511 107.628 143.511 107.056ZM140.877 105.959H142.226C142.571 105.959 142.834 105.89 143.019 105.749C143.202 105.607 143.295 105.404 143.295 105.139C143.295 104.869 143.203 104.664 143.019 104.523C142.834 104.383 142.571 104.312 142.226 104.312H140.877V105.96V105.959ZM143.579 106.387C143.733 106.559 143.811 106.788 143.811 107.074C143.811 107.425 143.688 107.697 143.441 107.884C143.195 108.072 142.829 108.165 142.345 108.165H140.578V104.059H142.232C142.662 104.059 142.998 104.149 143.239 104.329C143.479 104.508 143.6 104.767 143.6 105.102C143.6 105.341 143.537 105.54 143.412 105.7C143.287 105.861 143.112 105.978 142.889 106.053C143.194 106.103 143.423 106.216 143.577 106.387H143.579Z" fill="#E6E6E6"/>
<path d="M146.738 104.057H147.038V107.66L149.836 104.057H150.1V108.165H149.801V104.568L147.003 108.165H146.738V104.057Z" fill="#E6E6E6"/>
<path d="M156.571 106.217H155.667V108.165H155.374V106.217H154.47L153.116 108.165H152.758L154.225 106.053L152.869 104.057H153.209L154.466 105.947H155.374V104.057H155.667V105.947H156.571L157.832 104.057H158.167L156.816 106.053L158.284 108.165H157.927L156.571 106.217Z" fill="#E6E6E6"/>
<path d="M160.801 104.057H161.101V107.66L163.899 104.057H164.162V108.165H163.864V104.568L161.065 108.165H160.801V104.057Z" fill="#E6E6E6"/>
<path d="M171.286 108.165L171.28 104.649L169.56 107.619H169.414L167.695 104.662V108.165H167.402V104.057H167.654L169.491 107.233L171.326 104.057H171.573L171.578 108.165H171.286Z" fill="#E6E6E6"/>
<path d="M177.51 107.684C177.788 107.528 178.008 107.311 178.167 107.035C178.327 106.759 178.407 106.451 178.407 106.111C178.407 105.771 178.327 105.463 178.167 105.187C178.006 104.911 177.788 104.694 177.51 104.539C177.233 104.383 176.922 104.304 176.578 104.304C176.233 104.304 175.922 104.383 175.643 104.539C175.362 104.694 175.142 104.911 174.983 105.187C174.823 105.463 174.743 105.771 174.743 106.111C174.743 106.451 174.823 106.759 174.983 107.035C175.144 107.311 175.364 107.528 175.643 107.684C175.922 107.839 176.233 107.918 176.578 107.918C176.922 107.918 177.233 107.839 177.51 107.684ZM175.487 107.921C175.161 107.74 174.908 107.489 174.722 107.173C174.536 106.856 174.443 106.503 174.443 106.111C174.443 105.72 174.536 105.367 174.722 105.049C174.908 104.731 175.163 104.483 175.487 104.301C175.811 104.12 176.175 104.028 176.578 104.028C176.981 104.028 177.345 104.118 177.669 104.298C177.993 104.478 178.249 104.726 178.435 105.044C178.621 105.36 178.714 105.716 178.714 106.111C178.714 106.506 178.621 106.862 178.435 107.18C178.25 107.498 177.993 107.745 177.669 107.924C177.345 108.104 176.981 108.194 176.578 108.194C176.175 108.194 175.811 108.104 175.487 107.921Z" fill="#E6E6E6"/>
<path d="M182.254 107.924C181.931 107.745 181.677 107.496 181.491 107.18C181.305 106.862 181.212 106.507 181.212 106.113C181.212 105.718 181.305 105.362 181.491 105.044C181.677 104.728 181.931 104.479 182.254 104.3C182.576 104.12 182.939 104.03 183.341 104.03C183.638 104.03 183.913 104.078 184.163 104.174C184.413 104.271 184.627 104.412 184.802 104.6L184.614 104.792C184.285 104.468 183.865 104.304 183.353 104.304C183.008 104.304 182.696 104.383 182.414 104.54C182.133 104.696 181.912 104.913 181.751 105.189C181.591 105.465 181.511 105.771 181.511 106.113C181.511 106.453 181.591 106.761 181.751 107.037C181.912 107.313 182.133 107.53 182.414 107.685C182.696 107.841 183.009 107.92 183.353 107.92C183.861 107.92 184.282 107.756 184.614 107.427L184.802 107.619C184.625 107.807 184.412 107.95 184.16 108.048C183.908 108.146 183.635 108.194 183.341 108.194C182.939 108.194 182.576 108.104 182.254 107.924Z" fill="#E6E6E6"/>
<path d="M190.053 104.327H188.576V108.165H188.276V104.327H186.798V104.057H190.053V104.327Z" fill="#E6E6E6"/>
<path d="M192.613 104.057H192.911V107.66L195.709 104.057H195.974V108.165H195.674V104.568L192.876 108.165H192.613V104.057Z" fill="#E6E6E6"/>
</svg>
